<?xml version="1.0" encoding="UTF-8"?>
<svg viewBox="0 0 500 500" xmlns="http://www.w3.org/2000/svg">
 <g fill-rule="evenodd">
  <path d="m250 3.3891h-227.09c-10.781 0-19.521 8.7401-19.521 19.521v454.18c0 10.78 8.7401 19.521 19.521 19.521h454.18c10.781 0 19.521-8.7412 19.521-19.521v-454.18c0-10.781-8.7401-19.521-19.521-19.521h-227.09z" fill="#fff" stroke="#00007f" stroke-width="6.778"/>
  <g transform="matrix(1.2055 0 0 1.2055 -32.46 -52.692)" fill="#00007f">
   <path d="m195.51 149.9c9.36-5.148 16.849-8.028 22.608-8.784 5.651-0.79199 10.009 0.972 11.7 4.176 1.584 3.096 3.023 7.704-1.656 14.652-4.716 6.948-13.464 15.732-26.388 26.784 12.239 16.74 20.808 32.544 26.388 48.528 5.4 15.912 5.221 33.156 6.264 46.045 0.89999 12.635 2.053 9.576-0.43201 29.699-2.699 20.232-8.279 74.377-14.652 90.359-6.516 15.697-19.691 9.828-23.004 3.781-3.24-6.301 2.232-27 3.78-40.572 1.476-13.645 3.097-26.713 5.004-40.176-7.344 18.215-16.272 32.904-27.612 45.18-11.447 12.131-31.644 25.596-39.744 27.18-8.027 1.367-10.728-11.375-7.955-18.396 2.771-7.199 16.271-15.047 24.264-23.832 7.848-8.855 16.775-18.576 22.607-28.475 5.761-10.045 11.088-17.029 11.701-30.529 0.396-13.607-3.133-36.359-8.785-49.788-5.724-13.464-19.547-19.944-25.092-30.132-5.58-10.332-8.459-22.464-7.955-30.564 0.46701-8.136 5.291-13.896 10.871-17.568 5.58-3.636 15.696-1.332 22.176-4.176 6.373-3.024 11.629-7.344 15.912-13.392z"/>
   <path d="m140.29 161.2l-46.872 56.484c3.924 9.504 7.92 15.768 12.133 19.224 4.176 3.384 12.383 4.5 12.959 0.864 0.46899-3.78-2.879-11.592-10.043-23.436l39.348-49.788c-2.485-1.116-5.004-2.232-7.525-3.348z"/>
   <path d="m134.85 133.77c0 14.004 11.305 25.308 25.309 25.308 13.969 0 25.309-11.304 25.309-25.308 0-13.968-11.34-25.308-25.309-25.308-14.005 0-25.309 11.34-25.309 25.308z"/>
   <path d="m313.81 91.58v205.27h-7.668v-205.27h7.668z"/>
   <path d="m375.19 123.44l-56.664 32.688v-65.376l56.664 32.688z"/>
   <path d="m350.13 310.89c0 6.588 5.364 11.916 11.916 11.916 6.588 0 11.916-5.328 11.916-11.916 0-6.553-5.328-11.881-11.916-11.881-6.552 0-11.916 5.328-11.916 11.881z"/>
  </g>
 </g>
</svg>
